<svg width="90" height="79" viewBox="0 0 90 79" fill="none" xmlns="http://www.w3.org/2000/svg">
<path d="M7.375 1C3.85418 1 1 3.85419 1 7.375C1 10.8958 3.85419 13.75 7.375 13.75H82.625C86.1458 13.75 89 10.8958 89 7.375C89 3.85418 86.1458 1 82.625 1H7.375ZM7.375 32.9275C3.85418 32.9275 1 35.7817 1 39.3025C1 42.8233 3.85418 45.6775 7.375 45.6775H82.625C86.1458 45.6775 89 42.8233 89 39.3025C89 35.7817 86.1458 32.9275 82.625 32.9275H7.375ZM7.375 65.1775C3.85418 65.1775 1 68.0317 1 71.5525C1 75.0733 3.85418 77.9275 7.375 77.9275H82.625C86.1458 77.9275 89 75.0733 89 71.5525C89 68.0317 86.1458 65.1775 82.625 65.1775H7.375Z" fill="white" stroke="#720000" stroke-width="2"/>
</svg>
