<svg width="82" height="82" viewBox="0 0 82 82" fill="none" xmlns="http://www.w3.org/2000/svg">
<circle cx="41" cy="41" r="40" fill="#4248DD" stroke="#BBBBBB" stroke-width="2"/>
<path d="M28 41V42H29H35H36V41C36 39.8723 36.8723 39 38 39C39.1277 39 40 39.8723 40 41C40 40.9986 39.9997 41.0001 39.9988 41.0047C39.9929 41.0339 39.9614 41.1889 39.819 41.5308C39.6718 41.8844 39.4533 42.3308 39.1753 42.8656C38.9242 43.3483 38.6347 43.8841 38.3193 44.4679C38.287 44.5276 38.2545 44.5879 38.2217 44.6486C37.87 45.2997 37.4914 46.0029 37.1121 46.735C36.355 48.1961 35.5834 49.7944 34.9999 51.3679C34.4208 52.9295 34 54.5366 34 56C34 61.7254 38.4809 66 44 66C49.5323 66 54 61.5323 54 56V55H53H47H46V56C46 57.1277 45.1277 58 44 58C42.8723 58 42 57.1277 42 56C42 55.9135 42.0409 55.6763 42.1991 55.2354C42.3475 54.8217 42.5666 54.3149 42.8427 53.7269C43.2291 52.9039 43.7025 51.9724 44.2113 50.9715C44.4334 50.5345 44.6623 50.0842 44.8935 49.624C45.6452 48.1282 46.4125 46.5457 46.9925 45.0782C47.5612 43.6393 48 42.1917 48 41C48 35.5964 43.5409 31 38 31C32.4677 31 28 35.4677 28 41ZM47 16C43.1477 16 40 19.1477 40 23C40 26.8523 43.1477 30 47 30C50.8523 30 54 26.8523 54 23C54 19.1477 50.8523 16 47 16Z" fill="white" stroke="#BBBBBB" stroke-width="2"/>
</svg>
