<svg width="82" height="82" viewBox="0 0 82 82" fill="none" xmlns="http://www.w3.org/2000/svg">
<circle cx="41" cy="41" r="40" fill="#FF4D4D" stroke="#BBBBBB" stroke-width="2"/>
<path d="M55.9056 19.6436L62.822 26.4123L59.3566 29.8759L48.8473 40.3798L48.1337 41.093L48.8532 41.8002L59.3626 52.13L59.3625 52.1301L59.3718 52.139L62.8143 55.4363L55.8982 62.3487L52.5985 58.9073L52.5986 58.9073L52.5895 58.8981L42.2543 48.3942L41.5475 47.6758L40.8346 48.3883L30.3252 58.8922L26.8591 62.3565L20.0869 55.4437L23.537 52.139L23.5447 52.1317L23.5522 52.1241L33.8874 41.7943L34.5892 41.0929L33.8933 40.3857L23.5581 29.8818L23.5581 29.8818L23.5522 29.8759L20.0794 26.4048L26.8516 19.6361L30.3252 23.1079L30.3252 23.1079L30.3312 23.1137L40.8405 33.4435L41.5474 34.1383L42.2485 33.4377L52.5836 23.1079L52.5912 23.1003L52.5985 23.0927L55.9056 19.6436Z" fill="white" stroke="#BBBBBB" stroke-width="2"/>
</svg>
