<svg width="84" height="65" viewBox="0 0 84 65" fill="none" xmlns="http://www.w3.org/2000/svg">
<path d="M6.10472 1.03313C4.51719 1.28759 3.09565 2.16205 2.15263 3.46431C1.20928 4.76703 0.822074 6.39114 1.07619 7.97935C1.3303 9.56757 2.20492 10.9898 3.50764 11.9331C4.78793 12.8602 6.37863 13.2502 7.9406 13.0221H22.1646L22.8219 14.8478L26.9182 27.3366L31.0164 39.831C31.3023 40.75 31.9996 41.5339 32.7447 42.0745C33.4915 42.6163 34.4436 43.0277 35.3698 43.0277H70.3762C71.3447 43.0277 72.2986 42.6223 73.0464 42.0689C73.7911 41.5178 74.4498 40.7324 74.7302 39.8292C74.731 39.8266 74.7318 39.8239 74.7326 39.8213L82.8297 14.8308L82.8319 14.8238L82.8341 14.8167C83.0969 13.9626 83.0641 13.0326 82.6128 12.2737C82.1394 11.4775 81.2939 11.0221 80.278 11.0221H36.4728L32.9603 4.3668C32.4743 3.38114 31.727 2.54775 30.7997 1.95765C29.8679 1.36473 28.7906 1.04042 27.6864 1.02046L27.6774 1.02029H27.6683H7.70769C7.38882 0.994003 7.06838 0.993257 6.74942 1.01806C6.53451 1.00784 6.31919 1.00919 6.10438 1.0221L6.10472 1.03313ZM37.8702 51.0295C34.5174 51.0295 31.8693 53.6776 31.8693 57.0304C31.8693 60.3832 34.5174 63.0314 37.8702 63.0314C41.223 63.0314 43.8711 60.3832 43.8711 57.0304C43.8711 53.6776 41.223 51.0295 37.8702 51.0295ZM67.8758 51.0295C64.523 51.0295 61.8748 53.6776 61.8748 57.0304C61.8748 60.3832 64.523 63.0314 67.8758 63.0314C71.2286 63.0314 73.8767 60.3832 73.8767 57.0304C73.8767 53.6776 71.2286 51.0295 67.8758 51.0295Z" fill="white" stroke="#720000" stroke-width="2"/>
</svg>
